<?xml version="1.0" encoding="utf-8"?>
<!-- Generator: Adobe Illustrator 25.0.1, SVG Export Plug-In . SVG Version: 6.00 Build 0)  -->
<svg version="1.1" id="Layer_1" xmlns="http://www.w3.org/2000/svg" xmlns:xlink="http://www.w3.org/1999/xlink" x="0px" y="0px"
	 viewBox="0 0 94.2 100.1" style="enable-background:new 0 0 94.2 100.1;" xml:space="preserve">
<g id="Default_x5F_Hexagon">
	<g id="Default">
		<path d="M47.1,100.1c-2,0-4-0.5-5.8-1.5l-35-19.2c-3.8-2.1-6.2-6.1-6.2-10.5V31.3c0-4.4,2.4-8.4,6.2-10.5l35-19.2
			c3.6-2,7.9-2,11.5,0l35,19.2c3.8,2.1,6.2,6.1,6.2,10.5v37.6c0,4.4-2.4,8.4-6.2,10.5l-35,19.2C51.1,99.6,49.1,100.1,47.1,100.1z
			 M47.1,4.1c-1.3,0-2.6,0.3-3.9,1l-35,19.2c-2.6,1.4-4.1,4.1-4.1,7v37.6c0,2.9,1.6,5.6,4.1,7l35,19.2c2.4,1.3,5.3,1.3,7.7,0
			l35-19.2c2.6-1.4,4.2-4.1,4.2-7V31.3c0-2.9-1.6-5.6-4.2-7l-35-19.2C49.7,4.4,48.4,4.1,47.1,4.1z"/>
	</g>
</g>
<g id="Your_Icon">
	<path d="M56.8,41.5H13.6c-1.1,0-2-0.9-2-2s0.9-2,2-2h43.2c2.1,0,3.8-1.7,3.8-3.8s-1.7-3.8-3.8-3.8S53,31.6,53,33.7c0,1.1-0.9,2-2,2
		s-2-0.9-2-2c0-4.3,3.5-7.8,7.8-7.8s7.8,3.5,7.8,7.8S61.1,41.5,56.8,41.5z"/>
	<path d="M43.8,49H29.4c-1.1,0-2-0.9-2-2s0.9-2,2-2h14.4c1.1,0,2,0.9,2,2S44.9,49,43.8,49z"/>
	<path d="M74.7,49H51.8c-1.1,0-2-0.9-2-2s0.9-2,2-2h22.9c2.4,0,4.3-1.9,4.3-4.3s-1.9-4.3-4.3-4.3s-4.3,1.9-4.3,4.3c0,1.1-0.9,2-2,2
		s-2-0.9-2-2c0-4.6,3.7-8.3,8.3-8.3c4.6,0,8.3,3.7,8.3,8.3S79.3,49,74.7,49z"/>
	<path d="M25.6,63.9h-12c-1.1,0-2-0.9-2-2s0.9-2,2-2h11.9c1.1,0,2,0.9,2,2S26.7,63.9,25.6,63.9z"/>
	<path d="M21.2,49h-7.6c-1.1,0-2-0.9-2-2s0.9-2,2-2h7.6c1.1,0,2,0.9,2,2S22.4,49,21.2,49z"/>
	<path d="M50.8,75.5c-4.3,0-7.8-3.5-7.8-7.8c0-1.1,0.9-2,2-2s2,0.9,2,2c0,2.1,1.7,3.8,3.8,3.8s3.8-1.7,3.8-3.8s-1.7-3.8-3.8-3.8h-17
		c-1.1,0-2-0.9-2-2s0.9-2,2-2h17c4.3,0,7.8,3.5,7.8,7.8S55.1,75.5,50.8,75.5z"/>
	<path d="M69.5,69.3c-4.6,0-8.3-3.7-8.3-8.3c0-1.1,0.9-2,2-2s2,0.9,2,2c0,2.4,1.9,4.3,4.3,4.3s4.3-1.9,4.3-4.3s-1.9-4.3-4.3-4.3
		H13.6c-1.1,0-2-0.9-2-2s0.9-2,2-2h55.9c4.6,0,8.3,3.7,8.3,8.3S74.1,69.3,69.5,69.3z"/>
</g>
</svg>
