<?xml version="1.0" encoding="UTF-8"?>
<!-- Generator: Adobe Illustrator 25.4.1, SVG Export Plug-In . SVG Version: 6.00 Build 0)  -->
<svg xmlns="http://www.w3.org/2000/svg" xmlns:xlink="http://www.w3.org/1999/xlink" version="1.1" id="Your_Icon" x="0px" y="0px" viewBox="0 0 100 100" xml:space="preserve">
<g>
	<path d="M90.774,20.695L55.773,1.48c-3.616-1.985-7.934-1.984-11.548,0l-35,19.214C5.385,22.803,3,26.833,3,31.214v37.572   c0,4.381,2.386,8.412,6.226,10.519l35,19.214c1.808,0.993,3.792,1.489,5.775,1.489c1.982,0,3.966-0.496,5.774-1.489l34.999-19.214   C94.614,77.198,97,73.167,97,68.786V31.214C97,26.834,94.614,22.803,90.774,20.695z M11.15,24.202l35-19.214   c1.205-0.662,2.527-0.993,3.85-0.993c1.321,0,2.644,0.331,3.849,0.993l35,19.214C91.409,25.607,93,28.294,93,31.214v35.528   l-7.455-5.393c-1.515-1.04-3.287-1.59-5.126-1.59H69.997c-1.539,0-2.984,0.601-4.071,1.69c-0.954,0.958-1.501,2.197-1.623,3.532   l-7.028-4.363c-0.077-0.057-0.158-0.108-0.245-0.154c-1.104-0.593-2.354-0.786-3.607-0.565c-1.386,0.249-2.602,1.05-3.422,2.152   c-0.82-1.102-2.036-1.903-3.424-2.152c-1.251-0.226-2.502-0.028-3.606,0.565c-0.085,0.045-0.166,0.097-0.242,0.153l-7.031,4.364   c-0.121-1.331-0.669-2.573-1.624-3.532c-1.086-1.09-2.532-1.69-4.071-1.69H19.581c-1.84,0-3.612,0.55-5.167,1.618L7,66.742V31.214   C7,28.294,8.59,25.607,11.15,24.202z M7.443,71.358l9.277-6.711c0.845-0.58,1.834-0.887,2.862-0.887h10.422   c0.468,0,0.907,0.183,1.237,0.514c0.33,0.331,0.511,0.771,0.509,1.229l-0.001,0.125c-0.003,0.958-0.787,1.737-1.746,1.737h-6.774   c-1.104,0-2,0.896-2,2s0.896,2,2,2h8.198c1.03,0,2.036-0.286,2.907-0.828l10.627-6.596c0.214-0.096,0.527-0.173,0.914-0.104   c0.602,0.107,1.105,0.628,1.197,1.237c0.082,0.541-0.113,1.062-0.521,1.405L30.727,77.06c-0.827,0.549-1.789,0.839-2.781,0.839   H15.159c-0.053,0-0.103,0.012-0.156,0.016l-3.853-2.115C9.371,74.822,8.077,73.221,7.443,71.358z M53.849,95.013   c-2.411,1.322-5.289,1.322-7.698,0L22.261,81.898h5.685c1.782,0,3.508-0.521,4.999-1.511l15.899-10.632   c0.04-0.026,0.079-0.055,0.117-0.084c0.398-0.31,0.746-0.671,1.039-1.067c0.293,0.396,0.64,0.756,1.037,1.066   c0.038,0.03,0.077,0.059,0.118,0.085l15.906,10.636c1.484,0.986,3.211,1.507,4.992,1.507h5.684L53.849,95.013z M88.849,75.799   l-3.853,2.115c-0.052-0.004-0.102-0.016-0.155-0.016H72.054c-0.992,0-1.953-0.29-2.775-0.835L53.451,66.479   c-0.409-0.343-0.604-0.864-0.521-1.406c0.092-0.608,0.596-1.129,1.195-1.236c0.387-0.07,0.702,0.01,0.917,0.104l10.625,6.596   c0.872,0.542,1.878,0.828,2.907,0.828h8.198c1.104,0,2-0.896,2-2s-0.896-2-2-2h-6.774c-0.959,0-1.742-0.779-1.746-1.746   l-0.001-0.107c-0.002-0.467,0.179-0.907,0.509-1.238s0.77-0.514,1.237-0.514h10.422c1.027,0,2.017,0.307,2.822,0.858l9.316,6.739   C91.923,73.22,90.628,74.822,88.849,75.799z"></path>
	<path d="M58.175,34.313h2.923c-0.042,0.368-0.068,0.739-0.068,1.115c0,5.38,4.375,9.756,9.753,9.756c5.382,0,9.76-4.376,9.76-9.756   c0-0.375-0.026-0.746-0.068-1.115h2.469c1.104,0,2-0.896,2-2s-0.896-2-2-2h-2.615c-0.122-3.852-2.34-6.511-4.831-7.263   c-1.887-0.571-3.604-0.196-4.633,0.167c-1.028-0.363-2.746-0.736-4.633-0.167c-2.478,0.748-4.675,3.403-4.813,7.263h-3.244   c-1.104,0-2,0.896-2,2S57.07,34.313,58.175,34.313z M76.543,35.428c0,3.174-2.584,5.756-5.76,5.756   c-3.172,0-5.753-2.583-5.753-5.756c0-0.379,0.038-0.751,0.108-1.115h11.295C76.505,34.678,76.543,35.05,76.543,35.428z    M67.388,26.88c1.258-0.378,2.505,0.259,2.506,0.259c0.589,0.327,1.323,0.324,1.922,0.011c0.013-0.006,1.264-0.65,2.525-0.27   c0.859,0.259,1.856,1.465,1.971,3.434H65.434C65.558,28.34,66.537,27.137,67.388,26.88z"></path>
	<path d="M65.613,44.924c-3.333,0.842-6.355,4.485-5.393,9.576c0.182,0.959,1.021,1.628,1.963,1.628   c0.123,0,0.248-0.011,0.374-0.035c1.085-0.205,1.798-1.251,1.593-2.337c-0.514-2.717,0.84-4.549,2.443-4.953   c1.07-0.271,1.72-1.358,1.449-2.43C67.771,45.301,66.682,44.654,65.613,44.924z"></path>
	<path d="M76.276,44.924c-1.067-0.266-2.157,0.379-2.429,1.45c-0.27,1.071,0.379,2.158,1.45,2.429   c1.61,0.406,3.012,2.298,2.436,5.003c-0.23,1.081,0.459,2.143,1.539,2.373c0.141,0.03,0.281,0.044,0.419,0.044   c0.924,0,1.754-0.644,1.954-1.583C82.743,49.486,79.698,45.788,76.276,44.924z"></path>
	<path d="M10.704,58.782c0.373,0,0.75-0.104,1.087-0.322c5.772-3.745,12.251-2.979,18.518-2.238   c5.256,0.623,10.217,1.208,14.701-0.714c1.015-0.435,1.485-1.61,1.05-2.626c-0.435-1.015-1.612-1.487-2.626-1.05   c-3.501,1.499-7.947,0.974-12.654,0.418c-6.648-0.788-14.181-1.678-21.166,2.854c-0.926,0.602-1.19,1.84-0.589,2.767   C9.407,58.461,10.049,58.782,10.704,58.782z"></path>
	<path d="M10.704,52.492c0.373,0,0.75-0.104,1.087-0.322c5.772-3.745,12.252-2.979,18.519-2.238   c5.254,0.621,10.216,1.209,14.699-0.714c1.015-0.435,1.486-1.61,1.05-2.626c-0.435-1.015-1.612-1.486-2.625-1.05   c-3.501,1.501-7.947,0.975-12.654,0.418c-6.647-0.787-14.181-1.679-21.167,2.855c-0.926,0.602-1.19,1.84-0.589,2.767   C9.407,52.171,10.049,52.492,10.704,52.492z"></path>
	<path d="M22.972,43.879c3.639,0,6.489-2.114,6.489-4.813c0-2.699-2.85-4.813-6.489-4.813s-6.489,2.114-6.489,4.813   C16.483,41.765,19.333,43.879,22.972,43.879z M22.972,38.252c1.403,0,2.271,0.539,2.465,0.813   c-0.194,0.274-1.062,0.813-2.465,0.813c-1.404,0-2.271-0.539-2.466-0.813C20.701,38.792,21.568,38.252,22.972,38.252z"></path>
	<path d="M29.85,33.738c0,2.699,2.851,4.813,6.489,4.813s6.489-2.114,6.489-4.813c0-2.699-2.851-4.813-6.489-4.813   S29.85,31.04,29.85,33.738z M36.339,32.925c1.403,0,2.271,0.539,2.466,0.813c-0.194,0.274-1.062,0.813-2.466,0.813   c-1.404,0-2.271-0.539-2.466-0.813C34.067,33.464,34.935,32.925,36.339,32.925z"></path>
	<path d="M25.489,30.796c3.639,0,6.489-2.114,6.489-4.813c0-2.699-2.85-4.813-6.489-4.813S19,23.284,19,25.983   C19,28.682,21.85,30.796,25.489,30.796z M25.489,25.17c1.403,0,2.271,0.539,2.465,0.813c-0.194,0.274-1.062,0.813-2.465,0.813   c-1.404,0-2.271-0.539-2.466-0.813C23.217,25.709,24.085,25.17,25.489,25.17z"></path>
</g>
</svg>
