<?xml version="1.0" encoding="utf-8"?>
<!-- Generator: Adobe Illustrator 25.0.1, SVG Export Plug-In . SVG Version: 6.00 Build 0)  -->
<svg version="1.1" id="Your_Icon" xmlns="http://www.w3.org/2000/svg" xmlns:xlink="http://www.w3.org/1999/xlink" x="0px" y="0px"
	 viewBox="0 0 94.2 100.1" style="enable-background:new 0 0 94.2 100.1;" xml:space="preserve">
<g id="Default">
	<path d="M47.1,100.1c-2,0-4-0.5-5.8-1.5l-35-19.2c-3.8-2.1-6.2-6.1-6.2-10.5V31.3c0-4.4,2.4-8.4,6.2-10.5l35-19.2
		c3.6-2,7.9-2,11.5,0l35,19.2c3.8,2.1,6.2,6.1,6.2,10.5v37.6c0,4.4-2.4,8.4-6.2,10.5l-35,19.2C51.1,99.6,49.1,100.1,47.1,100.1z
		 M47.1,4.1c-1.3,0-2.6,0.3-3.9,1l-35,19.2c-2.6,1.4-4.1,4.1-4.1,7v37.6c0,2.9,1.6,5.6,4.1,7l35,19.2c2.4,1.3,5.3,1.3,7.7,0l35-19.2
		c2.6-1.4,4.2-4.1,4.2-7V31.3c0-2.9-1.6-5.6-4.2-7l-35-19.2C49.7,4.4,48.4,4.1,47.1,4.1z"/>
</g>
<path d="M47.1,79.1c-12.7,0-23-10.9-23-24.3c0-10.1,12.2-24.5,19.4-32.2c0.9-1,2.2-1.6,3.6-1.6s2.7,0.6,3.6,1.6
	c7.2,7.7,19.4,22,19.4,32.2C70.1,68.2,59.8,79.1,47.1,79.1z M47.1,25.1c-0.2,0-0.4,0-0.7,0.3c-4.3,4.5-18.3,20.1-18.3,29.4
	c0,11.2,8.5,20.3,19,20.3s19-9.1,19-20.3c0-9.3-14-24.9-18.3-29.4C47.5,25.1,47.3,25.1,47.1,25.1z"/>
<path d="M44.6,70.1c-6.4,0-11.5-6.3-11.5-14c0-1.1,0.9-2,2-2s2,0.9,2,2c0,5.5,3.4,10,7.5,10c0.6,0,1.3-0.1,1.9-0.3
	c1-0.4,2.2,0.2,2.5,1.2c0.4,1-0.2,2.2-1.2,2.5C46.7,69.9,45.7,70.1,44.6,70.1z"/>
</svg>
