<?xml version="1.0" encoding="utf-8"?>
<!-- Generator: Adobe Illustrator 25.0.1, SVG Export Plug-In . SVG Version: 6.00 Build 0)  -->
<svg version="1.1" id="Layer_1" xmlns="http://www.w3.org/2000/svg" xmlns:xlink="http://www.w3.org/1999/xlink" x="0px" y="0px"
	 viewBox="0 0 94.2 100.1" style="enable-background:new 0 0 94.2 100.1;" xml:space="preserve">
<g id="Default_x5F_Hexagon">
	<g id="Default">
		<path d="M47.1,100.1c-2,0-3.9-0.5-5.7-1.4l-35-19.2c-3.9-2.2-6.3-6.3-6.3-10.6V31.3c0-4.3,2.4-8.4,6.2-10.5l35-19.2
			c3.6-1.9,7.9-1.9,11.5,0l35,19.2C91.7,23,94,27,94,31.4V69c0,4.3-2.4,8.4-6.2,10.5l-35,19.2C51.1,99.6,49.1,100.1,47.1,100.1z
			 M47.1,4.1c-1.3,0-2.7,0.3-3.9,1l-35,19.2c-2.6,1.4-4.2,4.1-4.2,7v37.6c0,2.9,1.6,5.6,4.2,7.1l35,19.2c2.4,1.3,5.3,1.3,7.7,0
			l35-19.2c2.6-1.4,4.2-4.1,4.2-7V31.3c0-2.9-1.6-5.6-4.2-7.1l-35-19.1C49.7,4.4,48.4,4.1,47.1,4.1z"/>
	</g>
</g>
<g id="Your_Icon">
	<path d="M46.4,83.1h-13c-1.1,0-2-0.9-2-2s0.9-2,2-2h13c1.1,0,2,0.9,2,2S47.5,83.1,46.4,83.1z"/>
	<path d="M62.4,83.1h-8c-1.1,0-2-0.9-2-2s0.9-2,2-2h8c1.1,0,2,0.9,2,2S63.5,83.1,62.4,83.1z"/>
	<path d="M84.1,52h-74c-1.1,0-2-0.9-2-2s0.9-2,2-2h74c1.1,0,2,0.9,2,2S85.2,52,84.1,52z"/>
	<path d="M64.7,61.9H41.1c-1.1,0-2-0.9-2-2s0.9-2,2-2h23.6c1.1,0,2,0.9,2,2S65.8,61.9,64.7,61.9z"/>
	<path d="M79.9,62.8c0.8-1.5-0.6-4.1-3.4-5.9c-1.9-1.3-3.9-1.9-5.2-1.5c-0.6,0.1-1,0.4-1.3,0.9c-0.8,1.5,0.6,4.1,3.4,5.9
		c1.5,1,3.2,1.6,4.4,1.6c0.3,0,0.5,0,0.8-0.1C79.2,63.5,79.7,63.2,79.9,62.8z"/>
	<path d="M11,55.8c-0.9,0.5-1.5,1.2-1.7,1.9c-0.2,0.5-0.1,1,0.2,1.5c0.4,0.7,1.2,1,2,1c0.6,0,1.2-0.2,1.8-0.5
		c0.9-0.4,1.5-1.2,1.7-1.9c0.2-0.5,0.1-1-0.2-1.5C14.2,55.3,12.5,55,11,55.8z"/>
	<path d="M39.3,72.5c0.7,1.2,2,1.8,3.3,1.8c0.6,0,1.3-0.1,1.8-0.4c0.9-0.5,1.6-1.3,1.8-2.2c0.2-0.9,0.1-1.8-0.4-2.7
		c-1-1.7-3.4-2.3-5.2-1.3c-0.9,0.5-1.6,1.3-1.8,2.2C38.6,70.7,38.8,71.7,39.3,72.5z"/>
	<path d="M75.8,66.2c-1.9,0.4-3.6,0.9-5.1,1.4c-2.6,0.8-4.6,1.4-6.3,1c-0.7-0.2-1.4-0.4-2.1-0.6c-2.6-0.8-5.3-1.6-9.5-0.6
		c-1.1,0.3-3.2,0.7-2.8,2.1c0.4,1.3,2.5,1.4,5.5,1.2c0.6,0.1,1.4,0.3,2.3,0.7c1.4,0.5,3.2,1.1,5.5,1.4c4.9,0.7,9.8-0.7,12.8-2.1
		c0.7-0.3,1-0.3,1-0.4c0.3,0.1,0.7,0.9,0.8,1.2c0.2,0.5,0.7,1.5,2.2,1.5c0,0,0,0,0.1,0c1.6,0,2-1.1,2.1-1.5c0.6-1.6-0.2-3.5-1.7-4.5
		C79.3,66.1,77.6,65.9,75.8,66.2z"/>
	<g>
		<path d="M25,79c-1.1,0-2-0.9-2-2v-4.5c0-1.1,0.9-2,2-2s2,0.9,2,2V77C27,78.1,26.1,79,25,79z"/>
		<path d="M25,64.6c-1.1,0-2-0.9-2-2V59c0-1.1,0.9-2,2-2s2,0.9,2,2v3.6C27,63.7,26.1,64.6,25,64.6z"/>
		<path d="M33.6,69.5H30c-1.1,0-2-0.9-2-2s0.9-2,2-2h3.6c1.1,0,2,0.9,2,2S34.7,69.5,33.6,69.5z"/>
		<path d="M30,67.5"/>
		<path d="M18.3,69.5h-6.4c-1.1,0-2-0.9-2-2s0.9-2,2-2h6.4c1.1,0,2,0.9,2,2S19.4,69.5,18.3,69.5z"/>
		<path d="M32.6,77.1c-0.5,0-1-0.2-1.4-0.6l-3-3c-0.8-0.8-0.8-2,0-2.8s2-0.8,2.8,0l3,3c0.8,0.8,0.8,2,0,2.8
			C33.6,76.9,33.1,77.1,32.6,77.1z"/>
		<path d="M28.3,70.8"/>
		<path d="M20.5,66.9c-0.5,0-1-0.2-1.4-0.6l-2.6-2.6c-0.8-0.8-0.8-2,0-2.8c0.8-0.8,2-0.8,2.8,0l2.6,2.6c0.8,0.8,0.8,2,0,2.8
			C21.5,66.7,21,66.9,20.5,66.9z"/>
		<path d="M28.5,66c-0.6,0-1.2-0.3-1.6-0.8c-0.7-0.9-0.5-2.1,0.4-2.8l4.4-3.4c0.9-0.7,2.1-0.5,2.8,0.4s0.5,2.1-0.4,2.8l-4.4,3.4
			C29.4,65.9,28.9,66,28.5,66z"/>
		<path d="M28.5,64"/>
		<path d="M18.1,76.5c-0.5,0-1-0.2-1.4-0.6c-0.8-0.8-0.8-2-0.1-2.8l2.5-2.6c0.8-0.8,2-0.8,2.8-0.1c0.8,0.8,0.8,2,0.1,2.8l-2.5,2.6
			C19.1,76.3,18.6,76.5,18.1,76.5z"/>
		<path d="M24.5,74.5c-4.1,0-7.5-2.8-7.5-6.2s3.4-6.2,7.5-6.2s7.5,2.8,7.5,6.2S28.6,74.5,24.5,74.5z M24.5,66.1
			c-2.1,0-3.5,1.2-3.5,2.2s1.4,2.2,3.5,2.2s3.5-1.2,3.5-2.2S26.6,66.1,24.5,66.1z"/>
	</g>
</g>
</svg>
