<?xml version="1.0" encoding="utf-8"?>
<!-- Generator: Adobe Illustrator 25.0.1, SVG Export Plug-In . SVG Version: 6.00 Build 0)  -->
<svg version="1.1" id="Layer_1" xmlns="http://www.w3.org/2000/svg" xmlns:xlink="http://www.w3.org/1999/xlink" x="0px" y="0px"
	 viewBox="0 0 94.1 100" style="enable-background:new 0 0 94.1 100;" xml:space="preserve">
<g id="Default_x5F_Hexagon_copy">
	<g id="Default_1_">
		<path d="M47,100c-2,0-4-0.5-5.8-1.5l-35-19.2C2.4,77.2,0,73.2,0,68.8V31.2c0-4.4,2.4-8.4,6.2-10.5l35-19.2c3.6-2,7.9-2,11.5,0
			l35,19.2c3.8,2.1,6.2,6.1,6.2,10.5v37.6c0,4.4-2.4,8.4-6.2,10.5l-35,19.2C51,99.5,49,100,47,100z M47,4c-1.3,0-2.6,0.3-3.9,1
			l-35,19.2c-2.6,1.4-4.1,4.1-4.1,7v37.6c0,2.9,1.6,5.6,4.1,7l35,19.2c2.4,1.3,5.3,1.3,7.7,0l35-19.2c2.6-1.4,4.1-4.1,4.1-7V31.2
			c0-2.9-1.6-5.6-4.2-7L50.8,5C49.6,4.3,48.3,4,47,4z"/>
	</g>
</g>
<g id="CO2">
	<path d="M49.9,77.4"/>
	<g>
		<path d="M28.2,59.2c-5.4,0-9.7-4.4-9.7-9.7s4.4-9.7,9.7-9.7c3,0,5.7,1.3,7.6,3.6c0.7,0.9,0.6,2.1-0.3,2.8
			c-0.9,0.7-2.1,0.6-2.8-0.3c-1.1-1.4-2.7-2.1-4.5-2.1c-3.2,0-5.7,2.6-5.7,5.7c0,3.2,2.6,5.7,5.7,5.7c1.5,0,3-0.6,4-1.7
			c0.8-0.8,2-0.8,2.8,0s0.8,2,0,2.8C33.3,58.2,30.8,59.2,28.2,59.2z"/>
		<path d="M47.1,59.2c-5.2,0-9.4-4.2-9.4-9.4s4.2-9.4,9.4-9.4s9.4,4.2,9.4,9.4S52.3,59.2,47.1,59.2z M47.1,44.4
			c-3,0-5.4,2.4-5.4,5.4s2.4,5.4,5.4,5.4s5.4-2.4,5.4-5.4C52.5,46.8,50.1,44.4,47.1,44.4z"/>
		<path d="M71.3,59.2L71.3,59.2H60.5c-1.1,0-2-0.9-2-2c0-3.6,3.6-5.7,6.7-7.5c1.7-1,4.3-2.5,4.3-3.4c0-1.5-2.2-2-3.5-2l0,0
			c-1.2,0-3.5,0.4-3.5,2.1c0,1.1-0.9,2-2,2l0,0c-1.1,0-2-0.9-2-2c0.1-3.5,3.2-6,7.6-6c4.3,0,7.5,2.6,7.5,6c0,3.3-3.2,5.1-6.3,6.9
			c-1.1,0.6-2.3,1.3-3.2,2h7.3c1.1,0,2,0.9,2,2C73.3,58.3,72.4,59.2,71.3,59.2z"/>
	</g>
</g>
</svg>
